# xmcd
#
# Track frame offsets:
#	150
#	13080
#	26417
#	40306
#	73409
#	97153
#	110136
#	133197
#	148202
#	166986
#	180187
#	194957
#	207825
#	239693
#	262049
#	277422
#
# Disc length: 3925 seconds
#
# Revision: 1
# Processed by: cddbd v1.5.2PL0 Copyright (c) Steve Scherf et al.
# Submitted via: Antz-MP3Processor 1.0.0
#
DISCID=0c0f5310
DTITLE=Various Artist - Jazz - the Essential Collcetion Disc 16
DYEAR=1900
DGENRE=Jazz
TTITLE0=Dinah Washington - I Wanna Be Loved
TTITLE1=Louis Armstrong - A Kiss to Build A Dream On
TTITLE2=Ella Fitzgerald - Smooth Sailing
TTITLE3=Howard Rumsey's Lighthouse All-Stars - Mexican Passport
TTITLE4=Horace Silver Quintet, (The) - Hankerin'
TTITLE5=Lena Horne - Love Me or Leave Me
TTITLE6=Gene Ammons Battles Sonny Stitt - New Blues Up and Down
TTITLE7=Firehouse Five Plus Two - Alabama Jubilee
TTITLE8=Herbie Nichols (Feat. Al McKibbon and Art Blakey) - Shuffle Montgomery
TTITLE9=Helen Humes - Loud Talkin' Woman
TTITLE10=Sarah Vaughan - Thinking of You
TTITLE11=Ella Mae Morse - Forty Cups of Coffee
TTITLE12=Art Blakey Quintet - Wee-Dot
TTITLE13=Al Caiola - Thunderbird
TTITLE14=Ahmad Jamal Trio - Black Beauty
TTITLE15=Ben Webster - That's All
EXTD=
EXTT0=
EXTT1=
EXTT2=
EXTT3=
EXTT4=
EXTT5=
EXTT6=
EXTT7=
EXTT8=
EXTT9=
EXTT10=
EXTT11=
EXTT12=
EXTT13=
EXTT14=
EXTT15=
PLAYORDER=
